<?xml version="1.0" standalone="no"?>
<!DOCTYPE svg PUBLIC "-//W3C//DTD SVG 20010904//EN"
 "http://www.w3.org/TR/2001/REC-SVG-20010904/DTD/svg10.dtd">
<svg version="1.0" xmlns="http://www.w3.org/2000/svg"
 width="75.000000pt" height="75.000000pt" viewBox="0 0 75.000000 75.000000"
 preserveAspectRatio="xMidYMid meet">
<metadata>
Created by potrace 1.10, written by Peter Selinger 2001-2011
</metadata>
<g transform="translate(0.000000,75.000000) scale(0.050000,-0.050000)"
fill="#000000" stroke="none">
<path d="M546 1472 c-778 -254 -657 -1389 155 -1447 685 -49 1058 780 566
1259 -186 181 -496 262 -721 188z m574 -454 c-49 -44 -160 -114 -245 -156
l-156 -77 109 -111 c60 -61 128 -116 151 -124 46 -14 56 -50 14 -50 -36 0
-166 97 -252 188 -99 104 -135 95 -237 -58 -82 -123 -124 -159 -124 -107 0 13
63 108 141 210 199 266 222 327 109 299 -69 -17 -227 -165 -243 -225 -12 -48
-67 -67 -67 -22 1 72 194 263 291 287 145 36 184 -38 90 -168 l-61 -84 47 0
c69 0 312 128 393 207 39 38 84 69 100 70 17 1 -10 -35 -60 -79z"/>
</g>
</svg>
